<?xml version="1.0" encoding="UTF-8"?>
<svg version="1.1" viewBox="0 0 1600 1600" width="500" height="500" xmlns="http://www.w3.org/2000/svg">
<path transform="translate(792,450)" d="m0 0h29l39 4 26 5 19 5 31 11 24 11 25 13 20 13 13 10 14 12 12 11 18 18 9 11 15 20 12 19 13 24 11 25 10 31 6 29 3 25 1 16v28l-2 23-3 20-6 27-8 25-10 25-13 26-12 19-10 14-11 14-12 14-23 23-11 9-14 11-21 14-18 10-16 8-27 11-25 8-27 6-27 4-24 2h-27l-29-2-25-4-22-5-57-19-5 1-13 10-16 12-14 9-2-1 4-14 4-15 2-9-3-4-11-2-12-10-6-3-4 1-10 8-15 13-15 14-14 13-8 5-21 5-15 2 5-5 11-9 10-10 8-7 7-7 8-7 17-16 7-6 7-8 5-6 5-16v-7l-1-4-7-1-10 2-11 9-9 8-14 7-30 7 2-4 9-9 8-7 13-12 8-7 10-9 3-3-5-9-12-17-10-15-9-15-8-15-11-27-8-24-6-25-4-34-1-15v-27l3-30 4-24 6-24 9-25 11-24 13-25 14-22 13-16 7-8 9-10 8-8 8-7 14-12 16-12 17-11 22-12 19-9 25-10 23-7 36-8 29-4z" fill="#424357"/>
<path transform="translate(972,565)" d="m0 0h9l8 1 3 9 4 20v26l-4 28-4 19-5 18-12 31-8 18-10 19-11 19-10 14-12 16-12 13-11 12-20 20-8 7-13 11-8 8-11 9-28 24-15 13-13 11-10 8-11 9h-2v2l98 3 1 4-19 14-14 10-18 14-19 14-18 13-17 12-18 12-22 15-5 4h-3v-8l7-31 9-37 1-4-6 3-11 9-10 9-11 9-14 12-14 13-11 9-6 5h-2v2l-11 9-3 2-3-4-11-2-12-10-6-3-4 1-10 8-15 13-15 14-14 13-8 5-21 5-15 2 5-5 11-9 10-10 8-7 7-7 8-7 17-16 7-6 7-8 5-6 5-16v-7l-1-4-7-1-9 1 6-8 60-60 8-7 10-10 1-3h-9l-24 3-17 2-22 4h-7l1-7 8-16 17-32 11-23 10-19 16-32 6-13 3-2 3 9 16 32 8 17 6 11 3 3 8-16 9-21 16-32 4-9-1-5-6-3 2-5 4-9 13-23 13-22 8-11 10-14 9-11 12-13 10-10 22-18 17-12 13-8 10-6 16-8 20-9 20-7 15-5 28-6 7-1z" fill="#FCFCFC"/>
<path transform="translate(792,450)" d="m0 0h29v1l-10 2-9 9h-2v2l-16 12-10 6-9 5h-2v2l-19 9-15 7-5 1-1 3h5v3l-2 2-5 4-12 7-4 1-5 7h-3v12l-7 2v3l9-1 2 2-1 1 5 1 3-1 5 4 4 11 3 4 9 3 1 4-4 2-3 3-2 4h-2l-4 8-5 3-15-2 5 2-4 1-8-4-3-5-1-5-2 3-2-4v-5l-3 1-5 5-6 4-3 5-2 6-6 7h-2v2l-8 4-5 5 2 1-2 9-1 11-6 7-4 5-2 4-2 11 1 6 5 6 13 6 1 2 4 2 9 4 4 4 4 2 5 6-1 5-2 2-8 1-24-2-11 1-12 2h-21l-3 3 5 6 3 3-1 3-9 1-14-1-23-4-7-2h-11v3h-2l-3 10v7h-2v7l-2 2 1 11 4 7v8l3 11 1 10 5 10 1 3h2l1 3 5 4 2 3 17 3 6 3v2h2l5 5 11 7 3 1 2 4 5 4 2-3 2 1-15 31-12 22-8 16-1 5 35-6 28-3 7-1h9l1 2-7 8-11 11-8 7-56 56-6 7-10 8-9 8-14 7-30 7 2-4 9-9 8-7 13-12 8-7 10-9 3-3-5-9-12-17-10-15-9-15-8-15-11-27-8-24-6-25-4-34-1-15v-27l3-30 4-24 6-24 9-25 11-24 13-25 14-22 13-16 7-8 9-10 8-8 8-7 14-12 16-12 17-11 22-12 19-9 25-10 23-7 36-8 29-4z" fill="#7B5A72"/>
<path transform="translate(814,451)" d="m0 0h19l33 4 24 5 15 4 31 11 2 2h-2l-2 4-4 1-6-1-10-1-6-4-1-2h-2v-2l-3 1v-2l-8-1-2-1v-2l-5-1-4-1 1 6 5 2 3 3v2l9 1 4 4-6 1 4 3h-3v5l-5 3-5 2-5 5-5 7-3 6-10 6-1 2-7 1h-8l-13 3-1 4-6 5-3 5-2 8-6 8-3 1-1 3h-2l-2 4-4 5-12 6h-2v2l-5 3-5 2-4 7-2 5h-2l-2 5-8 11-3 6-4 3h-2l-1 3h-2l-3 9v12l-3 5h-2l-1 7-5 6-1 5-3 7-10 7h-2v2l-4 3-4 7-3 3-9 18h-2l-2 11-1 4-8 6-11 7 2 4 11 7 6 2 3 2 5-1v4l-1 4 5 2 2 3-1 5-12 25-10 21-8 19-6 11h-3l-7-11-4-9-14-29-7-14-2-8-3 2-5 12-24 48-4 6h-2l-2 4-3-2v-2l-3-1-1-4-5-1-14-10v-2h-2l-1-2-9-3-13-2-2-4-3-1v-2l-3-1v-3h-2l-5-9-2-6-4-22-1-7-3-5-1-11 2-2 1-7h2l-1-7 3-8 1-2h2v-3l3-1h8l22 5 15 2h16v-4l-5-5-3-4 4-3h22l16-3h9l22 2 7-1 2-2-1-5-4-5-4-2-2-2-5-3-6-3-10-6-8-4-6-8 1-7 1-8 2-6 3-1 6-8 1-1 1-14 2-6v-4l5-4 7-2v-2l6-5 2-3 2-7 4-5 8-5 3-4 3 1v6l1 1 2-3 4 11 8 4-3-3 13 1 5 1 4-2 1-4 5-5 2-4h2l1-3 4-1-2-4-9-3-5-8-2-7-3-2h-4l-6-1v-3h-9l-1-4 7-2v-9l1-2 3-1 4-6 2-2 5-1 13-8 3-5-5-1 2-4 9-3 11-5 16-8h3v-2l11-6 14-9 10-8h2v-2l8-7 3-3z" fill="#524D63"/>
<path transform="translate(1138,817)" d="m0 0h1l-1 12-7 32-8 25-10 25-13 26-12 19-10 14-11 14-12 14-23 23-11 9-14 11-21 14-18 10-16 8-27 11-25 8-27 6-27 4-24 2h-27l-29-2-25-4-22-5-57-19-5 1-13 10-16 12-14 9-2-1 4-14 4-15 3-10 11-10h2v-2l13-10 13-12 8-7 15-13 11-9 11-10 11-8h3l-1 8-9 37-6 27-1 8 7-4 11-8 12-8 28-19 18-13 19-14 21-16 16-12 14-10 3-1 2 10v9l5 2 7 2 11 2 14-1 18-7 9-4 13-6 9-3h2l1-2 8-5 14-4 3-2 11-1 10-1 10-2 12-5 10-6 1-2h2l-1-9 4-7 8-7 9-8 12-7 14-9 7-4 3-1v-2l8-6 3-3h2v-2h2l2-4 8-8 1-2h2l2-5 6-7h2l1-4h2l2-4 8-11z" fill="#544D75"/>
<path transform="translate(972,565)" d="m0 0h9l8 1 3 9 4 20v26l-4 28-4 19-5 18-12 31-8 18-10 19-11 19-10 14-12 16-12 13-11 12-20 20-8 7-13 11-8 8-11 9-28 24-15 13-13 11-10 8-11 9h-2v2l98 3 1 4-19 14-14 10-18 14-19 14-18 13-17 12-18 12-22 15-5 4h-3v-8l7-31 9-37 1-4-6 3-11 9-10 9-11 9-14 12-14 13-11 9-6 5h-2v2l-11 9-3 2-3-4-11-2-12-10-7-4 6-7 8-8 8-7 14-12 15-14 8-7 24-22 13-12 15-14 8-7 16-15 13-12 17-17 9-7 2 1-7 10-5 7h-2l-2 4-2 3h-2l-2 4-9 10-6 8-2 11 1 5-3 7v6l5-3 3 3 4 1 10-8 9-5 9-9 11-9h2l1-3 8-7 5-4h2l2-4h2v-2l7-6 1-3 4-4h2v-2l5-4 2-3 6-2 1-3 5-5 3-1 2-4 5-6 3-8 3-6 1-10 3-9h-3l3-10h-3l1-6 2-3v-3l-4-1 4-8 1-3h-3v-2l4-2 1-2 5-1 12-7 5-4 16-16 10-16 5-16 1-14-2-10-5-12-6-8-2-4h-2v-2l-4-2-4-4 1-5 7-8 8-7 23-23 14-16h2l2-4 5-6 21-21 1-2h2v-2l5-4 3-4h2l2-4 6-7-29 1-17 3-9 2h-7v-1l23-5 7-1z" fill="#F8CFC5"/>
<path transform="translate(772,452)" d="m0 0 4 1-3 3h-2l-1 5-5 6-5 3-7 7h-2v2l-16 10-10 6-19 9-8 4-9 3-18 5-16 7-10 6-1 2-7 4-10 9-8 6-5 5-7 8-6 4-7 8-6 10-4 8-4 14-2 20 2 13 1 6 2 1 2 9h2l4 7v2h2l4 8v2h2l1 3 4 3h3l1 1 9 1 14 8 9 5 10 8v3h-13l-19-3-39-7-4-1h-8l-3 3-1 3h-2v3l-4 1 6 5 2 5h3v3l2 2-4 1v-2l-12-1-3-2v-2h-4v-2h-7l-2-1-15-2v-2l-5-1-11-4-10-1-7 1v2l-6 5h-2l1-10 6-22 9-24 9-20 10-20 14-23 12-16 9-11 14-15 16-15 11-9 17-13 17-11 22-12 19-9 25-10 23-7 36-8z" fill="#AF607D"/>
<path transform="translate(814,451)" d="m0 0h5l1 9-5 2-3 8-6 4-13 13-8 7-6 8-6 3h-2l-2 4-6 4-7 5h-3l-2 4-5 8h-2l-2 8-2 4-7 4h-2v9l3 3 5 11 1 11-5 12-5 6-9 5-3 5-10 2-5 4-2 1-11-2-6 1-6 9-3 6-3 4-1 3-5 2-2 10-3 3-2 7-4 7-9 4v8l1 3 6 3 1-2 4 3 11 3 13 7 6 5-2 7-5 4-10 7-18 8-6 4-1 3-7 4-5 7-6 3-3 5-4 12-7 5-7 12-4 4v5l-5 2v8l3 3-1 4h-2l-2 5-2 12h5l2 9 1 8 4 1-2 5-3 1-2 4-3-2v-2l-3-1-1-4-5-1-14-10v-2h-2l-1-2-9-3-13-2-2-4-3-1v-2l-3-1v-3h-2l-5-9-2-6-4-22-1-7-3-5-1-11 2-2 1-7h2l-1-7 3-8 1-2h2v-3l3-1h8l22 5 15 2h16v-4l-5-5-3-4 4-3h22l16-3h9l22 2 7-1 2-2-1-5-4-5-4-2-2-2-5-3-6-3-10-6-8-4-6-8 1-7 1-8 2-6 3-1 6-8 1-1 1-14 2-6v-4l5-4 7-2v-2l6-5 2-3 2-7 4-5 8-5 3-4 3 1v6l1 1 2-3 4 11 8 4-3-3 13 1 5 1 4-2 1-4 5-5 2-4h2l1-3 4-1-2-4-9-3-5-8-2-7-3-2h-4l-6-1v-3h-9l-1-4 7-2v-9l1-2 3-1 4-6 2-2 5-1 13-8 3-5-5-1 2-4 9-3 11-5 16-8h3v-2l11-6 14-9 10-8h2v-2l8-7 3-3z" fill="#5D4F6B"/>
<path transform="translate(874,783)" d="m0 0 2 1-9 7-12 6-2-1-1 3-4 1v2h3v5l-5 6 5 1-1 5-3 7h3l-1 5-2 5h3l1-2-1 6-3 9v6l-4 7-3 9-7 8-5 5-7 6-3 1-2 3h-2l-1 3h-2v2l-4 4h-2l-1 4-5 5h-2v2l-14 12h-2l-1 3-11 9-5 5-5 4-3 3-3 2-11 7-6 5-1-2-4 1-2-3-4 2-2 2v-8l3-7-1-8 3-9 8-10 9-11h2l2-4 2-3h2l2-5 6-7 3-5-8 6-8 7-19 19-8 7-17 16-12 11-10 9-16 15-24 22-8 7-12 11-14 12-13 12-9 8-10 8-15 13-15 14-14 13-8 5-21 5-15 2 5-5 11-9 10-10 8-7 7-7 8-7 17-16 7-6 7-8 5-5h2l2-4 13-12 11-10 8-7 15-14 8-7 33-31 12-11 13-12 12-11 10-9 17-16 13-13 10-8 4-3h2l1-5 4-5h2l2-4 11-11 7-8 14-15 16-15 6-6 21 1 19-3 12-6z" fill="#F8DFD4"/>
<path transform="translate(763,886)" d="m0 0 2 1-7 10-5 7h-2l-2 4-2 3h-2l-2 4-9 10-6 8-2 11 1 5-3 7v6l5-3 3 3 4 1 10-8 7-4 84 3 17 1v4l-13 10-13 9-18 14-38 28-38 26-22 15-5 4h-3v-8l7-31 9-37 1-4-6 3-11 9-10 9-11 9-14 12-14 13-11 9-6 5h-2v2l-11 9-3 2-3-4-11-2-12-10-7-4 6-7 8-8 8-7 14-12 15-14 8-7 24-22 13-12 15-14 8-7 16-15 13-12 17-17z" fill="#FCFCFC"/>
<path transform="translate(792,450)" d="m0 0h29v1l-10 2-9 9h-2v2l-16 12-10 6-9 5h-2v2l-19 9-15 7-5 1-1 3h5v3l-2 2-5 4-12 7-4 1-5 7h-3v12l-7 2v3l9-1 2 2-1 1 5 1 3-1 5 4 4 11 3 4 9 3 1 4-4 2-3 3-2 4h-2l-4 8-5 3-15-2 5 2-4 1-8-4-3-5-1-5-2 3-2-4v-5l-3 1-5 5-6 4-3 5-2 6-6 7h-2v2l-8 4-5 5 2 1-2 9-1 11-6 7-4 5-2 4-2 11 1 6 5 6 13 6 1 2 4 2 9 4 4 4 4 2 5 6-1 5-2 2-8 1-2-2 5-2-1-3-4-2-5-6-16-8v-2l-7-1-18-8-6-3-7-10-5-25-1-12v-18l5-17 4-7 8-9 3-4h2l2-5 5-6h2l2-4 6-6h2l2-4 10-9 4-2v-2l16-14 13-5 4-1-3-1 16-7 4-1 19-9 15-8 15-10h2v-2l8-7 3-3h3l2-4 3-3 1-4h2l1-3 7-2z" fill="#66556C"/>
<path transform="translate(480,829)" d="m0 0 9 1 13 6v2l5 1 16 8v2l3 1 5 8 5 9 10 13 2 5 4 2v2l4 2 4 3v2l9 3 4 2v6l-5 10-1 5 35-6 28-3 7-1h9l1 2-7 8-11 11-8 7-56 56-6 7-10 8-9 8-14 7-30 7 2-4 9-9 8-7 13-12 8-7 10-9 3-3-5-9-12-17-10-15-9-15-8-15-11-27-8-24-6-25z" fill="#6F5B92"/>
<path transform="translate(1132,834)" d="m0 0 4 1-1 9-6 24-8 24-10 23-11 22-3 3-1-4-4 2-8 11-3 3h-2l-1 3h-2l-1 3-5 2-1 3h-2v2l-9 5-11 8-7 3-28 10-16 5-9 3-10 2h-15l-1-4 5-5 13-11h3l1-3h2v-3l-6-1-17 1h-21l-4-2 5-5 14-8 11-4 6-2 22-3 21-7 5-3h3v-2l9-7 6-5v-4l-5-2 3-6 11-10 27-16 13-10 12-11 8-8 8-10 11-12z" fill="#6E5B91"/>
<path transform="translate(837,676)" d="m0 0h17l16 4 10 6 7 7 8 14 2 7 1 15-2 14-8 15-5 6-11 9-14 7-9 3h-18l-14-5-11-7-8-10-6-13-1-4v-26l4-11 4-8 9-10 9-6 8-4z" fill="#554D75"/>
<path transform="translate(653,487)" d="m0 0 2 1-2 15-6 15-5 5-5 4h-2v2l-12 8-5 4-7 4-11 9-13 12-4 6h-2l-2 5-5 8-5 13-2 9-1 19 1 9 1 10 2 9v12l-4 4h-11l-12-4-10-5h-8v7l-1 3-2 10-4 8-3-1v2l-2 1h-12l-11-3v-2l-3-1 7-21 11-26 12-24 14-23 12-16 9-11 14-15 16-15 11-9 17-13 17-11 22-12z" fill="#D3616D"/>
<path transform="translate(754,863)" d="m0 0h7l5 3 2 3v9l-4 8-14 12-21 21-8 7-17 16-12 11-10 9-16 15-24 22-8 7-12 11-14 12-13 12-9 8-10 8-15 13-15 14-14 13-8 5-21 5-15 2 5-5 11-9 10-10 8-7 7-7 8-7 17-16 7-6 7-8 5-5h2l2-4 13-12 11-10 8-7 15-14 8-7 33-31 12-11 13-12 12-11 10-9 17-16 13-13 10-8z" fill="#464459"/>
<path transform="translate(479,721)" d="m0 0 2 2 1 5 5 1 2 2 2-1 1 4 3 1 3 10 5 4 4 11v3h2l6 20 9 18 6 9v2h2l5 6 8 7 4 4v2l3 1v2h2l8 11 12 16 10 13 4 5-12 22-3 4-1-4-10-4-2-1v-2l-4-2-10-10-8-11-7-10-4-8-4-4v-2l-5-1-4-3-7-3-5-2v-2l-5-1-8-4-9-2-1-1-3-27-1-15v-27l3-30z" fill="#94639B"/>
<path transform="translate(630,709)" d="m0 0h9l10 1 1 2-7 1-5 2-3 2-10 2-2 4-5 3-7 1-4 2-11 1-1 2v3l2 1-2 5-4 7h2l1 2h2l-2 6-3 5 1 2h-2l-2 5-5 8-3 10-6 12-7 9 2 10-2 2-2-1 1 3 2 1 1 4-14-3-7-1-2-4-3-1v-2l-3-1v-3h-2l-5-9-2-6-4-22-1-7-3-5-1-11 2-2 1-7h2l-1-7 3-8 1-2h2v-3l3-1h8l22 5 15 2h16v-4l-5-5-3-4 4-3h22z" fill="#67546C"/>
<path transform="translate(633,914)" d="m0 0h10l-1 3h-2v3h-2v2l-5 3-5 6-3 5-60 60-6 7-10 8-9 8-14 7-30 7 2-4 9-9 8-7 13-12 8-7 10-9 3-3v-5l3-2 1-4v-7l-3-10 1-11 2-4h2l-2-5 2-3 6-2h9l13-3 4-4 5-2 8-2z" fill="#554D74"/>
<path transform="translate(854,867)" d="m0 0 4 3 1 3 1 28v33l-1 22-2 1-1-3-89-3-9-1v-2l6-4 10-9 10-8 13-11 14-12 15-13 11-9 15-13z" fill="#D3606D"/>
<path transform="translate(653,487)" d="m0 0 2 1-2 15-6 15-5 5-5 4h-2v2l-12 8-5 4-7 4-11 9-13 12-4 6h-2l-2 5-5 8-5 13-2 9-1 19 1 9 1 10 2 9v12l-4 4h-11l-12-4-10-5h-8v7l-1 3-2 10-4 8-3-1v2l-2 1h-12l-11-3v-2l-3-1 7-21 6-14h6l1-2 4-2 12 2 9 4 6-1 12-16 2-8h2l1-5 4-9 5-17 5-13h2v-3h2l1-4 8-11 7-7 7-8 14-14-1-4 2-4h-2v-3h2l2-5 1-5-1-3 6-6 17-10z" fill="#C26075"/>
<path transform="translate(704,763)" d="m0 0 7 3 2 3-1 5-12 25-10 21-8 19-6 11h-3l-7-11-4-9-14-29-7-14-3-10 5-4 13-3 25-4 19-2z" fill="#EE6E6E"/>
<path transform="translate(535,902)" d="m0 0 5 1 8 1 5 1 4 2 7-1 5 2-2 14 35-6 28-3 7-1h9l1 2-7 8-11 11h-2l2-4 6-7h3v-2h2v-3l3-3-49 6-6 3h-3l-2 4-13 3h-9l-6 2-1 3 1 4h-2l-2 15 3 10v7l-1 5-3 1-2 2-26-38-8-13 2-4 2-1 1 2 4-3 2 5 3-8-1-4 8-4 2-2-3-6z" fill="#675983"/>
<path transform="translate(772,452)" d="m0 0 4 1-3 3h-2l-1 5-5 6-5 3-7 7h-2v2l-16 10-10 6-19 9-8 4-9 3-8 2-4-1v-3l3-5 4-5 3-4 4-4 1-3 5-2v-2l6-1 2-6 9-5 4-1v-2l6-3 2-4-2-1 28-6z" fill="#95649B"/>
<path transform="translate(508,722)" d="m0 0h2v16l2 17 4 10 3 13 5-5-3-9v-11l2 4 3 9 2 3v8l3 11 1 10 5 10 1 3h2l1 3 5 4 2 3 17 3 6 3v2h2l5 5 11 7 3 1 2 4 5 4 2-3 2 1-14 29h-4l-13-17-11-15-7-9v-2h-2l-7-8-10-9v-2l-3-1v-2h-2l-11-18-4-10-3-8-5-25v-23z" fill="#6E5B91"/>
<path transform="translate(603,1067)" d="m0 0h2l-3 24-6 8-16 15-10 9-8 7-13 12-11 9-14 12-21 14-16 9-2-1 5-5h2v-2l8-7 7-7 7-8 43-43 8-7 22-22 8-7 7-8z" fill="#47455A"/>
<path transform="translate(792,450)" d="m0 0h29v1l-10 2-9 9h-2v2l-16 12-10 6-9 5h-2v2l-19 9-15 7-20 6-16 4h-13l2-2 12-5 9-3 19-10 12-6 15-10h2v-2l8-7 3-3h3l2-4 3-3 1-4h2l1-3 7-2z" fill="#6F5B91"/>
<path transform="translate(633,914)" d="m0 0h10l-1 3h-2v3h-2v2l-5 3-6 8-5 3-6 6h-2v2l-8 7-8 8h-2l-2 4-2 1-4-1v-2l6-3-5-1 1-7 4-5h2l2-4 7-7-9 2 1-3-5 3h-7l-13 8-4 3h-2l-1-2-3 1-1-3-4 3-3 8-4-2 1-9 2-4h2l-2-5 2-3 6-2h9l13-3 4-4 5-2 8-2z" fill="#5C4E6B"/>
<path transform="translate(805,909)" d="m0 0 3 1v2l5-2v3 2l2 1-1 3h-2l1 5-1 8h-2v3l-4 1v2h6v2l13 1 3 2 1-2 4 2 6 2 5 2v2h2l1 2 6 1v1h-30l-56-2-9-1v-2l6-4 10-9 10-8 13-11z" fill="#ED6D6D"/>
<path transform="translate(1113,901)" d="m0 0h3l-1 5-11 23-6 11-2-4-4 2-8 11-3 3h-2l-1 3h-2l-1 3-5 2-1 3h-2v2l-9 5-11 8-7 3-28 10-16 5-9 3-10 2h-15l-1-4 5-5 13-11h3l1-3h2v-3l-6-1-17 1h-21l-4-2 5-5 14-8 11-4 6-2 7-1h10v1l-20 3-13 6-6 3-1 3 2 2 6 1h17l5-1h9l3 1 1 4-9 11-1 3 14-1 17-5 8-4 18-6 16-9 9-7 6-6h2v-2l5-4 11-15h2l2-4 4-5 7-9 1-3h2v-3l5-5z" fill="#665983"/>
<path transform="translate(920,489)" d="m0 0h2l2 4 7 2 2 3v6l-4 4-6 2-1 2 3 1-4 3-2 1-3 2-5 1-3 3h-16l-1 1v6l-1 2-2-1v-2l-4-2-3 1v2l-7 2-4 5-6 2-3 6-2 1h-6l-3-1-1 3h-7l-5 4-3 3 1-6h2l2-7 10-3 2-3h2v-2l10-3 3-4h2l2-5 8-6 3-1v-2l4-1 1-3 8-6h8v-2l6-2 3-7 7 1z" fill="#514C62"/>
<path transform="translate(837,676)" d="m0 0h17l16 4 7 4-4 1-2 7-9 11-6 7-10 6-4 1-2-7-4-2-1-4 1-2-10-3-9-3v-2l2-1 1-3 5-5 3-1v-2h2v-3l-2-1z" fill="#655983"/>
<path transform="translate(552,988)" d="m0 0 9 3v4 6l-13 11-10 8-12 6-30 7 2-4 9-9 8-7 13-12 8-7 4-4 9-1z" fill="#564E65"/>
<path transform="translate(479,721)" d="m0 0 2 2 1 5 5 1 2 2 2-1 1 4 3 1 2 9-1 8-4 1-1 5-3 7-2 6h-2v7l-3 6-5-1v-37z" fill="#AF617D"/>
<path transform="translate(972,565)" d="m0 0h9l8 1-1 4-7 8-4 4-2 3h-2l-2 4-2 3h-2l-1 3h-2l-1 3h-2v2h-2l-2 4-11 11-5 6-4 4h-2l-2 4-31 31-5 8-6 8 2 5 5 10 6 13-1 3-6-12-5-5v-2h-2v-2l-4-2-4-4 1-5 7-8 8-7 23-23 14-16h2l2-4 5-6 21-21 1-2h2v-2l5-4 3-4h2l2-4 6-7-29 1-17 3-9 2h-7v-1l23-5 7-1z" fill="#F8DED4"/>
<path transform="translate(805,459)" d="m0 0 2 2-3 9-3 4h-2l-2 5-5 4-6 4-11 9h-2v2l-11 7-8 4-3-1-7 2-5-1v-3l6-3 12-7 3-3 11-6 4-1v-2l4-2 1-2 9-5 9-9 6-5z" fill="#524D63"/>
<path transform="translate(566,825)" d="m0 0 5 2v2h2l5 5 11 7 3 1 2 4 5 4 2-3 2 1-6 11-5 8h-2l-1 4-6-1-1-8-1-4h2l-6-11-5-9-6-11z" fill="#665983"/>
<path transform="translate(591,871)" d="m0 0 1 3-12 22-8 18v4h9l16-3 37-4 12-1 3 1-1 5-29 29-5 6-7 6-7 8-31 31-3 4-5 1 6-8 60-60 8-7 10-10 1-3h-9l-24 3-17 2-22 4h-7l1-7 8-16z" fill="#F8D5CA"/>
<path transform="translate(719,982)" d="m0 0h3v8l-4 16-5 21-4 19-4 16 9-5 19-13 2 1-11 8-12 8-5 4h-3v-8l7-31 9-37 1-4-6 3-11 9-10 9-11 9-14 12-14 13-11 9-6 5h-2v2l-11 9-3 2 1-5 16-14 14-11 15-13 10-9 11-9 12-11 12-9z" fill="#F8D5CB"/>
<path transform="translate(851,960)" d="m0 0h2l2 10v9l5 2 7 2 11 2 14-1 18-7 9-4 13-6 6-2v2l-16 7-8 4-25 10-9 2-14-2-9-3-11-2-3-2-1-4-5-1 2-4 7-8z" fill="#524D63"/>
<path transform="translate(711,557)" d="m0 0 3 3 5 10 7 5-1 3-5 3h-2l-2 6-3 6-3-1-6-9-1-3-6-2-1-3 9-7 4-7z" fill="#FDFDFD"/>
<path transform="translate(698,912)" d="m0 0 2 1-17 16-10 9-15 14-12 11-7 7-8 7-15 14-8 7-14 13-8 7-10 9-1 2-2-1 2-5 8-6 15-15 8-7 11-10 11-9 9-9 8-7 12-11 16-15 12-11 11-9z" fill="#F8D6CB"/>
<path transform="translate(713,553)" d="m0 0 5 4 5 1v2l5 1 7 10 2 10-5 8-4 5h-2v2l-7 4h-5l1-4 4-3 5-4 3-5h2l2-5 1-6-3-1-1-3-15-10-1-5z" fill="#524D63"/>
<path transform="translate(718,985)" d="m0 0h3l-1 8-9 37-6 27-1 8 7-4 11-8 12-8 4-3 2 1-9 8-5 1v2l-5 2v2h-3v2l-5 2v2l-8 3h-3l1-11 6-27 7-30 3-11-7 4-6 5-1 3-11 9-6 5-5 3-2-1 11-10 11-9 9-8z" fill="#805B85"/>
<path transform="translate(638,778)" d="m0 0 2 1 3 10 16 32 7 15 6 11 3 3 8-16 9-21 2-1-3 10-9 22-5 10-4 2-7-13-9-17-7-15-10-22-2-7-3 2 1-4z" fill="#F8D4C9"/>
<path transform="translate(637,970)" d="m0 0 2 1-10 10-7 8-12 11-1 2h-2l-1 3-16 14-5 4-1 2-3 1-3 4-5 2-6 6-2-1 8-8h2l2-4 13-12 11-10 8-7 15-14 8-7z" fill="#855979"/>
<path transform="translate(689,954)" d="m0 0 2 1-15 15-8 7-3 3h-2l-2 4-10 9-7 7-11 9-16 16-11 9-10 9-6 5v-3l13-13 8-7 14-12 15-14 8-7 24-22 13-12z" fill="#F8D7CC"/>
<path transform="translate(654,985)" d="m0 0 2 1-14 13-8 7-12 11-14 12-13 12-6 6h-2l1-4 3-3h3v-3h2v-2h3v-3h2v-2l5-5 5-4 4-4 11-9h2v-2l5-1 1-4h3l2-4 3-1 1-3h3v-3l5-3z" fill="#725472"/>
<path transform="translate(710,555)" d="m0 0 3 1-1 2-2 3-4 7-6 5-3 3v2l6 2 7 10 1 2h2l4-9 4-4 4-2v-2l-3-3 7 2 1 4-4 2-3 3-2 4h-2l-4 8-5-1-5-5-4-6-3-2v-2l-4-2 2-5 4-1 2-4 6-9z" fill="#975E84"/>
<path transform="translate(544,1006)" d="m0 0 4 1-1 4-5 2 1 3-5 4-3 2-9 2h-5l-2-5 9-4 4-4 4-2 4 1z" fill="#454459"/>
<path transform="translate(679,1017)" d="m0 0 2 1-12 13-5 6h-3l-1 3-5 3-5 5h-2v2l-10 7h-3l-2 4-3 3h-2l-2 4-2 3h-2l2-6 10-9h2v-2l13-10 13-12 8-7z" fill="#795B85"/>
<path transform="translate(624,933)" d="m0 0 3 1-53 53-1-3 11-12 4-5 7-6 17-17h2v-2l8-7z" fill="#7C5B88"/>
<path transform="translate(719,982)" d="m0 0h3v8l-4 16-5 21-4 19-4 16 9-5 19-13 2 1-11 8-12 8-5 4h-3v-8l7-31 9-37 1-4-3-1z" fill="#F8D5CB"/>
<path transform="translate(858,873)" d="m0 0h1l1 28v33l-1 22-2 1-2-5 1-5z" fill="#BB6077"/>
<path transform="translate(711,557)" d="m0 0 3 3 5 10 7 5-1 3-5 3h-2l-2 6-3 6-3-1-6-9-1-3-6-2-1-3 9-7 4-7zm1 4-8 10-3 3 1 4h2l2 4 4 6 4-1 4-7 5-3-2-4-5-5-3-7z" fill="#F8D7CC"/>
<path transform="translate(633,914)" d="m0 0h10l-1 3h-2v3h-2v2l-5 3-2 3-6 1-3-2 3-4h2l1-5-1-2z" fill="#544D74"/>
<path transform="translate(637,912)" d="m0 0h9l1 2-7 8-11 11h-2l2-4 6-7h3v-2h2v-3l3-3-43 5h-10v-1l12-2 28-3z" fill="#885C85"/>
<path transform="translate(888,1026)" d="m0 0 3 3v3l4 2 1 3-3 4h-2l1 3-1 2-5-1-3-7v-5l3-1z" fill="#775B8A"/>
<path transform="translate(704,763)" d="m0 0 1 2-16 3-23 3-25 5-1 3-2-2 5-4 13-3 25-4 19-2z" fill="#C26074"/>
<path transform="translate(693,812)" d="m0 0 1 2-11 28-6 12-4 2-2-4v-3l4 1 8-16 9-21z" fill="#F8D5CA"/>
<path transform="translate(782,952)" d="m0 0h41l33 1 1 4-3-1-42-2-30-1z" fill="#F8D5CB"/>
<path transform="translate(608,993)" d="m0 0 2 1-8 8-7 8-10 9-9 8-1 2-2-1 2-5 8-6 15-15 8-7z" fill="#F8DAD0"/>
<path transform="translate(514,1156)" d="m0 0 2 1-14 15-1 4 2 1-16 9-2-1 5-5h2v-2l8-7 7-7z" fill="#605168"/>
<path transform="translate(722,572)" d="m0 0 7 2 1 4-4 2-3 3-2 4h-2l-4 8-2-1 3-10 5-5 4-2v-2z" fill="#795B8B"/>
<path transform="translate(689,954)" d="m0 0 2 1-15 15-8 7-3 3h-2l-2 4-10 9-4 1 15-15 8-7 16-15z" fill="#F8D6CB"/>
<path transform="translate(738,1042)" d="m0 0 2 1-9 8-5 1v2l-5 2v2h-3v2l-5 2v2l-8 3h-3v-5l1 3 5-2 14-10 12-8z" fill="#755B87"/>
<path transform="translate(602,1006)" d="m0 0 1 2-8 7-7 5-4 5-3 1-3 4-5 2-6 6-2-1 8-8h2v-2l7-4 10-10h3l2-4z" fill="#594F66"/>
<path transform="translate(605,957)" d="m0 0v3l-36 36-3 4-2-1 7-8z" fill="#F9E0D5"/>
<path transform="translate(1132,834)" d="m0 0 4 1-1 8-12 2-2 1 2-4z" fill="#695A84"/>
<path transform="translate(711,557)" d="m0 0 3 3 5 10 7 5v2h-3l-5-5-5-8-1-2-7 9-3 3v4l-4-2 2-4 6-5z" fill="#F8D7CD"/>
<path transform="translate(710,903)" d="m0 0v3l-10 9-2 4-8 7-6 4-2-1 10-10 8-7z" fill="#725572"/>
<path transform="translate(654,985)" d="m0 0 2 1-14 13-8 7-4 2v-3h3l1-4h3l2-4 3-1 1-3h3v-3l5-3z" fill="#795879"/>
<path transform="translate(801,584)" d="m0 0h2l-2 4-5 4-1 4-11 6-2-1 5-4 7-8z" fill="#524D63"/>
<path transform="translate(887,1028)" d="m0 0h2l1 4 4 3v3h-4l-1 4h-2l-3-5v-3h2z" fill="#FAE9E3"/>
<path transform="translate(653,697)" d="m0 0 5 4v2l5 2v4l-5 1-1-1-4-1h2l-1-3-3-2 3-1z" fill="#6E5A91"/>
<path transform="translate(667,942)" d="m0 0 2 1-11 12-5 3-8 9-4 3-2-1 15-15 8-7z" fill="#885A79"/>
<path transform="translate(777,640)" d="m0 0 2 1-2 7 3 3-7 3-1-3-4 3h-2l2-4 7-6v-3z" fill="#514C62"/>
<path transform="translate(644,1052)" d="m0 0 1 2-5 2-1 3h-2l1 2 3 2v2l-7-1-5 3-2-1 5-5 3-4z" fill="#5D4F6B"/>
<path transform="translate(641,1050)" d="m0 0 2 1-2 4-3 2h-3l-2 4-3 3h-2l-2 4-2 3h-2l2-6 10-9h2v-2z" fill="#8B5E84"/>
<path transform="translate(727,715)" d="m0 0 3 3-8 14-4-2 1-4 5-4z" fill="#5A4E65"/>
<path transform="translate(815,475)" d="m0 0 2 2-1 6-7 4h-3l2-5 5-5z" fill="#544D75"/>
<path transform="translate(606,1028)" d="m0 0 2 1-13 12-6 6h-2l1-4 3-3h3v-3h2v-2h3v-3h2v-2l4-1z" fill="#7C5776"/>
<path transform="translate(612,1024)" d="m0 0 2 1-10 11-11 9-3 3v-3l13-13 8-7z" fill="#F8D6CB"/>
<path transform="translate(698,912)" d="m0 0 2 1-17 16-8 7-3-1 13-12 11-9z" fill="#F8D8CE"/>
<path transform="translate(580,719)" d="m0 0 6 2 6 3 2 2v-3l3 1-1 4-9 1h-3l1-7-4-1z" fill="#6F5A8F"/>
<path transform="translate(802,533)" d="m0 0 4 2 2 5-2 2h-5l-3-4 2-4z" fill="#FAE3DC"/>
<path transform="translate(718,985)" d="m0 0h3l-1 8-3 12h-1l1-9 2-8-7 4-8 7-2-1 10-9z" fill="#8B5C84"/>
<path transform="translate(716,988)" d="m0 0h3l-2 11-1-4-7 2-3 1-1 2 1-4z" fill="#5C4F6D"/>
<path transform="translate(710,555)" d="m0 0 3 1-1 2-2 3-4 7-6 5-4-1 4-1 2-4 6-9z" fill="#835C8B"/>
<path transform="translate(733,1044)" d="m0 0 2 1-11 8-12 8-5 4h-3v-5l1 2 9-5z" fill="#F8D7CC"/>
<path transform="translate(594,964)" d="m0 0 2 1-22 22-1-3 9-10 4-2z" fill="#925D81"/>
<path transform="translate(603,1067)" d="m0 0h2l-2 18h-1l-2-6-4-2 6-8z" fill="#6D5A6F"/>
<path transform="translate(643,914)" d="m0 0h2l-1 4-15 15h-2l2-4 6-7h3v-2h2v-3z" fill="#7B577B"/>
<path transform="translate(977,562)" d="m0 0 12 2 2 1v6l-2-4-8-1h-19v-1l14-2z" fill="#7F5878"/>
<path transform="translate(600,956)" d="m0 0 2 3-5 5-5 3-8 8v-3l4-5 7-6z" fill="#705A87"/>
<path transform="translate(644,1044)" d="m0 0 2 1-9 8-8 7-6 7-1-3 5-6 11-9z" fill="#F8DFD4"/>
<path transform="translate(857,935)" d="m0 0h2v21l-2 1-2-5z" fill="#B55F78"/>
<path transform="translate(630,789)" d="m0 0h2l-2 6-8 16-2 2v-9l4-1 2-6z" fill="#765778"/>
<path transform="translate(653,1040)" d="m0 0h2l-1 5-4 3h-2v2l-4 3-3-1 4-5z" fill="#7C5B84"/>
<path transform="translate(588,1012)" d="m0 0 3 1-9 9-6 5-1 2-2-1 2-5 8-6z" fill="#F6D3CA"/>
<path transform="translate(578,976)" d="m0 0 1 3-5 5-2 5-3 2 1-6-1-5h2l1-2 2 3 2-3h2z" fill="#65516F"/>
<path transform="translate(615,1017)" d="m0 0m-1 1h1v5l-6 5-6 3 2-5 6-5z" fill="#67526F"/>
<path transform="translate(622,1016)" d="m0 0 3 1-8 8-8 7-2-1 12-13z" fill="#F8DBD0"/>
<path transform="translate(679,844)" d="m0 0h1v5l-4 6h-4l-1-6 4 1z" fill="#F8D6CC"/>
<path transform="translate(705,762)" d="m0 0 9 4 1 5-6 13-3 3 2-6 4-9-1-5-6-3z" fill="#F8D4CA"/>
<path transform="translate(976,562)" d="m0 0m-17 0h16l1 2-14 2h-7v-2z" fill="#564F69"/>
<path transform="translate(779,605)" d="m0 0h2l1 3-2 4-6 3h-2l-1 3 1-5 3-1 2-5z" fill="#524D63"/>
<path transform="translate(560,970)" d="m0 0 4 1 2 4-3 2-6 1-1-3z" fill="#5D4F6B"/>
<path transform="translate(698,573)" d="m0 0 2 1v3l4 1 6 8-1 4-6-8v-2l-6-2-1-3z" fill="#F8D3C9"/>
<path transform="translate(866,586)" d="m0 0 4 1 2 2v2l-6 3h-2l1-7z" fill="#5C4E66"/>
<path transform="translate(624,933)" d="m0 0 3 1-12 12-1-4 8-7z" fill="#835C87"/>
<path transform="translate(672,637)" d="m0 0 3 1-6 7h-3l1-6z" fill="#5D4F6B"/>
<path transform="translate(580,1024)" d="m0 0 2 1-4 5-5 2-6 6-2-1 8-8h2v-2z" fill="#765B73"/>
<path transform="translate(685,1009)" d="m0 0 2 1-6 7-5 4-3-1z" fill="#F8DACF"/>
<path transform="translate(804,533)" d="m0 0 4 2 2 4-5 6-5-1-1-4 7 1 1-3z" fill="#835C85"/>
<path transform="translate(656,1034)" d="m0 0 2 1-11 12-2-1 3-5z" fill="#F8D9CE"/>
<path transform="translate(1038,914)" d="m0 0v3 4l5 1-1 4-2 1-1-4-5-2 3-6z" fill="#655983"/>
<path transform="translate(492,1178)" d="m0 0h2v2l2 1-9 5-2-1 5-5h2z" fill="#785E74"/>
<path transform="translate(498,1173)" d="m0 0h2v6l-6 1 1-4z" fill="#4C475C"/>
<path transform="translate(738,1042)" d="m0 0 2 1-9 8-7 2 4-4z" fill="#7E5B86"/>
<path transform="translate(919,877)" d="m0 0 3 1 1 5h-6l-1-4z" fill="#855979"/>
<path transform="translate(722,572)" d="m0 0 7 2 1 4-5 2-2-2 2-1v-2z" fill="#875C88"/>
<path transform="translate(694 1e3)" d="m0 0 3 1-10 9-2-1 6-7z" fill="#F8D5CB"/>
<path transform="translate(638,998)" d="m0 0h2l-2 4-6 6h-2v-3h3l1-4h3z" fill="#7A5777"/>
<path transform="translate(643,771)" d="m0 0h7l-10 5-5 5 1-5z" fill="#715770"/>
<path transform="translate(1020,850)" d="m0 0 5 1-1 5h-4z" fill="#B38495"/>
<path transform="translate(884,1034)" d="m0 0 2 1 1 2h6l1-2v3h-4l-1 4h-2l-3-5z" fill="#F8D5CA"/>
<path transform="translate(692,1006)" d="m0 0 2 1-6 7-5 3-2-1z" fill="#8E5D84"/>
<path transform="translate(1025,923)" d="m0 0 4 8-4 5h-2v-2h2l-1-9z" fill="#524D63"/>
<path transform="translate(727,715)" d="m0 0 3 3-4 7-2-4z" fill="#574E66"/>
<path transform="translate(628,1006)" d="m0 0h2l-1 4-6 5 1-5 4-2z" fill="#725575"/>
<path transform="translate(684,511)" d="m0 0 4 1-5 2 3 1-1 1h-8l1-3z" fill="#785A78"/>
</svg>
