 <svg viewBox="0 0 24 24" xmlns="http://www.w3.org/2000/svg" width="24" height="24" fill="none"><style>@keyframes airpod-case{0%,50%,to{opacity:1}25%,75%{opacity:0}}</style><path fill="#0A0A30" fill-rule="evenodd" d="M8.748 4.024a5.75 5.75 0 00-5.75 5.75v4.452a5.75 5.75 0 005.75 5.75h6.482a5.75 5.75 0 005.75-5.75v-4.111a.752.752 0 000-.358 5.75 5.75 0 00-5.75-5.733H8.748zM19.44 9.186a4.251 4.251 0 00-4.21-3.662H8.748a4.25 4.25 0 00-4.21 3.662H19.44zm-14.942 1.5v3.54a4.25 4.25 0 004.25 4.25h6.482a4.25 4.25 0 004.25-4.25v-3.54H4.498z" clip-rule="evenodd"/><path fill="#265BFF" fill-rule="evenodd" d="M10.455 12.803c0-.428.313-.774.7-.774h1.69c.387 0 .7.346.7.774 0 .427-.313.774-.7.774h-1.69c-.387 0-.7-.347-.7-.774z" clip-rule="evenodd" style="animation:airpod-case 2s infinite both"/></svg>